HIERARCHY
ROOT Hips
{
	OFFSET 0.000000 0.000000 0.000000 
	CHANNELS 6 Xposition Yposition Zposition Zrotation Yrotation Xrotation
	JOINT LeftUpLeg
	{
		OFFSET 1.363060 -1.794630 0.839290 
		CHANNELS 3 Zrotation Yrotation Xrotation
		JOINT LeftLeg
		{
			OFFSET 2.448110 -6.726130 0.000000 
			CHANNELS 3 Zrotation Yrotation Xrotation
			JOINT LeftFoot
			{
				OFFSET 2.562200 -7.039590 0.000000 
				CHANNELS 3 Zrotation Yrotation Xrotation
				JOINT LeftToeBase
				{
					OFFSET 0.157640 -0.433110 2.322550 
					CHANNELS 3 Zrotation Yrotation Xrotation
					End Site
					{
						OFFSET 0.000000 0.000000 0.000000 
					}
				}
			}
		}
	}
	JOINT RightUpLeg
	{
		OFFSET -1.305520 -1.794630 0.839290 
		CHANNELS 3 Zrotation Yrotation Xrotation
		JOINT RightLeg
		{
			OFFSET -2.542530 -6.985550 0.000000 
			CHANNELS 3 Zrotation Yrotation Xrotation
			JOINT RightFoot
			{
				OFFSET -2.568260 -7.056230 0.000000 
				CHANNELS 3 Zrotation Yrotation Xrotation
				JOINT RightToeBase
				{
					OFFSET -0.164730 -0.452590 2.363150 
					CHANNELS 3 Zrotation Yrotation Xrotation
					End Site
					{
						OFFSET 0.000000 0.000000 0.000000 
					}
				}
			}
		}
	}
	JOINT Spine
	{
		OFFSET 0.028270 2.035590 -0.193380 
		CHANNELS 3 Zrotation Yrotation Xrotation
		JOINT Spine1
		{
			OFFSET 0.056720 2.048850 -0.042750 
			CHANNELS 3 Zrotation Yrotation Xrotation
			JOINT Neck1
			{
				OFFSET -0.054170 1.746240 0.172020 
				CHANNELS 3 Zrotation Yrotation Xrotation
				JOINT Head
				{
					OFFSET 0.104070 1.761360 -0.123970 
					CHANNELS 3 Zrotation Yrotation Xrotation
					End Site
					{
						OFFSET 0.000000 0.000000 0.000000 
					}
				}
			}
			JOINT LeftArm
			{
				OFFSET 3.362410 1.200890 -0.311210 
				CHANNELS 3 Zrotation Yrotation Xrotation
				JOINT LeftForeArm
				{
					OFFSET 4.983000 -0.000000 -0.000000 
					CHANNELS 3 Zrotation Yrotation Xrotation
					JOINT LeftHand
					{
						OFFSET 3.483560 -0.000000 -0.000000 
						CHANNELS 3 Zrotation Yrotation Xrotation
						JOINT LeftHandIndex1
						{
							OFFSET 0.715260 -0.000000 -0.000000 
							CHANNELS 3 Zrotation Yrotation Xrotation
							End Site
							{
								OFFSET 0.000000 0.000000 0.000000 
							}
						}
					}
				}
			}
			JOINT RightArm
			{
				OFFSET -3.136600 1.374050 -0.404650 
				CHANNELS 3 Zrotation Yrotation Xrotation
				JOINT RightForeArm
				{
					OFFSET -5.241900 -0.000000 -0.000000 
					CHANNELS 3 Zrotation Yrotation Xrotation
					JOINT RightHand
					{
						OFFSET -3.444170 -0.000000 -0.000000 
						CHANNELS 3 Zrotation Yrotation Xrotation
						JOINT RightHandIndex1
						{
							OFFSET -0.622530 -0.000000 -0.000000 
							CHANNELS 3 Zrotation Yrotation Xrotation
							End Site
							{
								OFFSET 0.000000 0.000000 0.000000 
							}
						}
					}
				}
			}
		}
	}
}
MOTION
Frames: 13
Frame Time: 0.041667
33.219705 17.574287 -3.325796 11.920052 -77.446729 -15.577564 -31.689313 -10.196915 -2.298309 -0.563308 9.962022 26.556710 -3.091629 14.213857 -12.916196 0.123900 -2.269200 -6.250200 25.263243 2.843817 -10.013531 -11.420034 -19.507860 65.554489 3.404479 -16.780816 -7.969164 -2.319700 9.502500 -27.380300 1.415292 1.987735 2.680903 -7.064726 0.595428 4.359060 11.047386 0.459036 12.773344 -0.446600 1.200400 4.643000 -96.324424 -9.106849 24.078491 10.816347 -9.826862 -1.218868 -2.557707 -1.360265 14.362630 -7.125000 0.000000 0.000000 106.115281 -0.064481 36.572408 -14.003251 20.970171 -4.288253 0.619765 2.962727 -18.548639 7.125000 0.000000 0.000000 
32.947395 17.575209 -3.237178 11.807969 -77.223198 -14.590795 -31.894524 -10.348739 -1.871646 -0.627439 9.843959 26.269763 -3.078553 14.281444 -13.507231 0.178100 -2.718200 -7.495300 25.444985 4.856642 -13.193889 -11.310388 -19.838115 65.440179 3.438675 -17.040056 -9.361638 -2.359600 9.578000 -27.620600 1.445504 1.669109 2.584791 -6.609439 0.359070 4.625768 10.884620 0.483438 13.279929 -0.415600 1.254800 4.421600 -96.620174 -9.800803 27.087806 11.185583 -10.462252 -1.444960 -2.457879 -1.449311 12.409998 -7.125000 0.000000 0.000000 105.913041 -0.161426 36.365375 -13.720340 20.564752 -4.097700 0.687403 2.915588 -18.632077 7.125000 0.000000 0.000000 
32.671744 17.555042 -3.145563 11.842562 -77.026017 -14.529941 -32.352280 -10.241370 -0.407188 -0.726123 9.531044 25.648139 -3.137089 14.589956 -14.131530 0.225600 -3.057200 -8.438200 25.562225 6.425474 -15.239792 -10.874262 -19.932574 64.323847 3.306850 -16.674260 -10.499840 -2.109200 9.090000 -26.077300 1.475249 1.383750 2.587069 -6.195353 0.146658 4.801571 10.811775 0.571891 13.539400 -0.353500 1.313300 4.572700 -96.964730 -10.402280 29.467352 11.672265 -11.288253 -1.709701 -2.417801 -1.648024 10.907639 -7.125000 0.000000 0.000000 105.683029 -0.206493 36.201152 -13.434820 20.117604 -3.903006 0.746594 2.860687 -18.995417 7.125000 0.000000 0.000000 
32.372929 17.559191 -3.058442 11.236845 -76.728176 -13.996203 -32.702545 -10.120002 1.349917 -0.823910 9.168069 24.972955 -3.147139 14.752323 -14.792540 0.266200 -3.318800 -9.167700 25.863128 7.753441 -17.043753 -10.271748 -19.936935 62.701192 3.503628 -17.697697 -12.521121 -1.965200 8.793100 -25.150300 1.479295 1.184379 2.572768 -6.028971 0.009547 4.732194 10.611649 0.609546 13.682379 -0.474700 1.346600 4.623900 -97.159955 -10.627876 31.715533 12.206379 -12.282492 -2.042892 -2.415228 -1.753927 10.004411 -7.125000 0.000000 0.000000 105.679325 -0.405511 35.530843 -13.186387 19.764001 -3.777456 0.730011 2.778024 -18.316515 7.125000 0.000000 0.000000 
32.078839 17.551355 -2.971437 10.730315 -76.427549 -13.398793 -32.980089 -9.950164 3.001747 -0.959073 8.732638 24.066907 -3.164317 14.904033 -15.287854 0.296100 -3.498900 -9.671000 25.977295 9.052623 -18.756913 -9.523678 -19.829165 60.609978 3.597898 -18.311973 -13.979461 -1.932500 8.724100 -24.936000 1.496541 0.956797 2.544437 -5.757077 -0.155053 4.751321 10.461775 0.632624 13.881785 -0.528400 1.373900 4.716200 -97.392510 -10.974876 33.869456 12.728074 -13.227342 -2.385088 -2.413388 -1.871656 9.221922 -7.125000 0.000000 0.000000 105.595838 -0.604847 35.026717 -12.953308 19.427249 -3.647467 0.745961 2.706136 -17.970772 7.125000 0.000000 0.000000 
31.777720 17.549280 -2.883394 10.182528 -76.108468 -12.785655 -33.207933 -9.684499 4.832100 -1.131984 8.177004 22.863433 -3.187374 15.039027 -15.641538 0.309700 -3.577700 -9.891600 26.029779 10.159836 -20.185271 -8.587050 -19.546507 57.889110 3.701228 -18.964254 -15.290128 -1.949100 8.759300 -25.045300 1.516618 0.741040 2.511852 -5.510452 -0.310687 4.734217 10.311096 0.639168 14.067957 -0.588400 1.391800 4.795100 -97.629414 -11.267261 35.936518 13.261943 -14.186881 -2.750665 -2.442075 -1.993488 8.706575 -7.125000 0.000000 0.000000 105.510514 -0.850369 34.538766 -12.755149 19.156793 -3.546947 0.752786 2.634628 -17.610712 7.125000 0.000000 0.000000 
31.471530 17.552161 -2.793623 9.647775 -75.780597 -12.147459 -33.376299 -9.342122 6.707420 -1.324441 7.544550 21.461056 -3.206964 15.130993 -15.864858 0.309700 -3.577800 -9.891900 25.987049 11.116610 -21.457654 -7.539368 -19.108100 54.734858 3.816235 -19.631633 -16.363113 -2.041900 8.952900 -25.648100 1.542579 0.528271 2.470469 -5.275893 -0.463754 4.708284 10.165885 0.633577 14.239627 -0.645600 1.401400 4.864300 -97.877025 -11.556012 37.942354 13.791549 -15.120314 -3.126910 -2.491200 -2.120154 8.361400 -7.125000 0.000000 0.000000 105.401988 -1.123951 34.124409 -12.599607 18.964986 -3.476385 0.754125 2.571433 -17.310775 7.125000 0.000000 0.000000 
31.160846 17.555734 -2.702008 9.176056 -75.489599 -11.532434 -33.472066 -8.865455 8.654749 -1.544344 6.796351 19.759772 -3.242822 15.221708 -15.889567 0.301300 -3.529300 -9.756000 25.858410 11.967046 -22.547903 -6.409048 -18.500112 51.184517 3.919408 -20.202466 -17.146971 -2.157300 9.186300 -26.379700 1.572969 0.337834 2.425881 -5.060594 -0.604905 4.703164 10.032056 0.613140 14.399598 -0.692400 1.401500 4.930800 -98.127061 -11.873849 39.875742 14.306158 -16.003588 -3.503960 -2.546908 -2.250284 8.069041 -7.125000 0.000000 0.000000 105.273032 -1.408977 33.796321 -12.489967 18.853030 -3.432203 0.754212 2.525355 -17.144342 7.125000 0.000000 0.000000 
30.847165 17.556425 -2.609241 8.785584 -75.234438 -10.977857 -33.505697 -8.251269 10.692411 -1.782621 5.930573 17.760520 -3.306514 15.347017 -15.701635 0.293800 -3.485600 -9.633600 25.654910 12.766890 -23.439290 -5.258635 -17.742094 47.399049 3.975869 -20.584224 -17.835873 -2.183300 9.237900 -26.542200 1.607246 0.167652 2.384612 -4.866833 -0.735459 4.729441 9.893489 0.591063 14.537437 -0.744600 1.398300 4.992500 -98.372386 -12.237039 41.676324 14.798046 -16.823058 -3.875153 -2.594706 -2.367620 7.730050 -7.125000 0.000000 0.000000 105.129752 -1.676099 33.525348 -12.421730 18.806958 -3.409011 0.752040 2.497255 -17.113153 7.125000 0.000000 0.000000 
30.531065 17.551124 -2.516012 8.533030 -75.024920 -10.563667 -33.505674 -7.487882 12.871279 -2.032299 4.933397 15.435539 -3.408622 15.543886 -15.287718 0.292700 -3.479000 -9.615300 25.372373 13.623085 -24.117838 -4.148911 -16.872015 43.539681 4.030439 -20.960880 -18.536185 -2.147000 9.165900 -26.315500 1.643345 0.031800 2.354951 -4.690176 -0.848832 4.802975 9.753642 0.561989 14.649832 -0.800400 1.389300 5.051500 -98.610237 -12.646180 43.303950 15.258267 -17.569184 -4.235843 -2.625103 -2.445579 7.277122 -7.125000 0.000000 0.000000 104.977787 -1.902234 33.254246 -12.386570 18.806787 -3.399608 0.745446 2.487582 -17.155454 7.125000 0.000000 0.000000 
30.210931 17.538563 -2.424628 8.459577 -74.831458 -10.379853 -33.477565 -6.531445 15.325557 -2.290344 3.750073 12.662783 -3.553912 15.822603 -14.578693 0.298600 -3.513700 -9.712500 25.010963 14.649310 -24.507796 -3.128431 -15.938678 39.776693 4.064106 -21.340136 -19.558555 -1.988700 8.842500 -25.303900 1.674477 -0.070185 2.341651 -4.530193 -0.944860 4.910852 9.627239 0.512993 14.748696 -0.855900 1.370700 5.111800 -98.817137 -13.056097 44.765301 15.688049 -18.258774 -4.589804 -2.630839 -2.484986 6.649948 -7.125000 0.000000 0.000000 104.849577 -2.099597 32.938075 -12.374361 18.833682 -3.397174 0.739541 2.490776 -17.211605 7.125000 0.000000 0.000000 
29.887109 17.517935 -2.335548 8.580291 -74.625798 -10.452124 -33.286546 -4.981332 18.190904 -2.556523 2.202529 9.006854 -3.683935 15.936487 -13.169443 0.310300 -3.581000 -9.900900 24.544976 15.940809 -24.613309 -2.236126 -15.006198 36.273513 4.097577 -21.823044 -20.940097 -1.747500 8.319000 -23.687200 1.703247 -0.152255 2.345931 -4.369247 -1.032577 5.050866 9.515199 0.456154 14.835120 -0.908600 1.348100 5.170600 -99.017919 -13.433593 46.093232 16.118625 -18.942476 -4.955391 -2.591371 -2.562254 5.732411 -7.125000 0.000000 0.000000 104.728695 -2.256482 32.580825 -12.375744 18.870730 -3.397567 0.734298 2.498455 -17.250384 7.125000 0.000000 0.000000 
29.558563 17.488780 -2.249004 8.882188 -74.351883 -10.792120 -32.844724 -2.939811 22.746416 -2.873312 -0.533534 2.465646 -4.022798 16.618693 -10.353669 0.329600 -3.689800 -10.205500 23.968947 17.534722 -24.444047 -1.492554 -14.140303 33.177467 4.111317 -22.384485 -22.731089 -1.456600 7.628300 -21.590600 1.728419 -0.238146 2.363758 -4.225384 -1.125227 5.201284 9.422384 0.398438 14.906655 -0.953000 1.324300 5.223300 -99.194414 -13.741266 47.290934 16.541365 -19.610567 -5.324533 -2.515956 -2.685625 4.587509 -7.125000 0.000000 0.000000 104.629088 -2.390129 32.192980 -12.383608 18.909937 -3.399358 0.731805 2.503000 -17.242752 7.125000 0.000000 0.000000 
